<?xml version="1.0" encoding="utf-8"?>
<!-- Generator: Adobe Illustrator 19.2.1, SVG Export Plug-In . SVG Version: 6.00 Build 0)  -->
<svg version="1.1" id="Layer_1" xmlns="http://www.w3.org/2000/svg" xmlns:xlink="http://www.w3.org/1999/xlink" x="0px" y="0px"
	 width="17px" height="17px" viewBox="0 0 17 17" style="enable-background:new 0 0 17 17;" xml:space="preserve">
<style type="text/css">
	.st0{fill:none;stroke:#FFFFFF;stroke-linejoin:round;stroke-miterlimit:10;}
	.st1{fill:none;stroke:#FFFFFF;stroke-linecap:round;stroke-linejoin:round;stroke-miterlimit:10;}
	.st2{fill:none;stroke:#FFFFFF;stroke-linecap:round;stroke-linejoin:round;stroke-miterlimit:10;}
</style>
<g>
	<ellipse class="st0" cx="12.9" cy="12.9" rx="3.6" ry="3.6"/>
	<line class="st1" x1="11.2" y1="12.9" x2="14.5" y2="12.9"/>
	<line class="st1" x1="12.9" y1="14.5" x2="12.9" y2="11.3"/>
</g>
<path class="st2" d="M7.8,7.6C7.3,7.5,7.3,7.5,6.9,7.3V5.9c0,0,0.9-0.3,0.9-1.7c0.4,0,0.4-1.1,0-1.1c0-0.1,0.5-0.9,0.2-1.6
	C7.8,0.2,4.6,0.2,4.3,1.3C2.9,1.1,3.7,2.9,3.7,3c-0.4,0-0.4,1.1,0,1.1c0,1.4,0.9,1.7,0.9,1.7v1.4C2.9,7.9,1,8.2,0.8,9
	c-0.3,0.9-0.3,2.3-0.3,2.3h5.1"/>
</svg>
