<?xml version="1.0" encoding="utf-8"?>
<!-- Generator: Adobe Illustrator 19.2.1, SVG Export Plug-In . SVG Version: 6.00 Build 0)  -->
<svg version="1.1" id="Layer_1" xmlns="http://www.w3.org/2000/svg" xmlns:xlink="http://www.w3.org/1999/xlink" x="0px" y="0px"
	 width="16.5px" height="17px" viewBox="0 0 16.5 17" style="enable-background:new 0 0 16.5 17;" xml:space="preserve">
<style type="text/css">
	.st0{fill:none;stroke:#282828;stroke-linecap:round;stroke-linejoin:round;stroke-miterlimit:10;}
	.st1{fill:none;stroke:#282828;stroke-linejoin:round;stroke-miterlimit:10;}
	.st2{fill:none;stroke:#282828;stroke-width:0.75;stroke-linecap:round;stroke-linejoin:round;stroke-miterlimit:10;}
</style>
<g>
	<line class="st0" x1="2.9" y1="5.6" x2="6" y2="5.6"/>
	<line class="st0" x1="2.9" y1="8.3" x2="8.4" y2="8.3"/>
	<line class="st0" x1="2.9" y1="11" x2="7" y2="11"/>
	<g>
		<polyline class="st1" points="5.8,15 0.5,15 0.5,0.5 8.1,0.5 11.5,3.9 11.5,7.5 		"/>
		<polyline class="st0" points="8.1,0.5 8.1,3.9 11.5,3.9 		"/>
	</g>
</g>
<g>
	<path class="st2" d="M9.9,15.9l-2.4,0.6l0.6-2.4l5.8-5.8c0.3-0.3,0.7-0.3,1,0l0.8,0.8c0.3,0.3,0.3,0.7,0,1L9.9,15.9z"/>
	<line class="st2" x1="14.4" y1="11.3" x2="12.7" y2="9.6"/>
	<path class="st0" d="M12.6,9.8"/>
	<path class="st0" d="M14.3,11.5"/>
	<line class="st2" x1="10.5" y1="15.2" x2="8.7" y2="13.5"/>
</g>
</svg>
