<?xml version="1.0" encoding="utf-8"?>
<!-- Generator: Adobe Illustrator 19.2.1, SVG Export Plug-In . SVG Version: 6.00 Build 0)  -->
<svg version="1.1" id="Layer_1" xmlns="http://www.w3.org/2000/svg" xmlns:xlink="http://www.w3.org/1999/xlink" x="0px" y="0px"
	 width="17px" height="17px" viewBox="0 0 17 17" style="enable-background:new 0 0 17 17;" xml:space="preserve">
<style type="text/css">
	.st0{fill:none;stroke:#282828;stroke-linejoin:round;stroke-miterlimit:10;}
</style>
<g>
	<path class="st0" d="M7.1,10.6c0,0-1-0.3-1-2.1c-0.6,0-0.6-1.4,0-1.4c0-0.2-1-2.8,0.7-2.4c0.3-1.4,4.2-1.4,4.5,0
		c0.2,1-0.3,2.3-0.3,2.4c0.6,0,0.6,1.4,0,1.4c0,1.7-1,2.1-1,2.1v1.7c1.7,0.6,3.4,1.2,4.3,1.8c1.4-1.5,2.3-3.4,2.3-5.6
		c0-4.5-3.5-8-8-8s-8,3.5-8,8c0,2.2,0.9,4.2,2.3,5.6c0.9-0.6,2.8-1.2,4.3-1.8V10.6z"/>
	<path class="st0" d="M2.8,14.1c1.5,1.5,3.5,2.4,5.7,2.4s4.2-0.9,5.7-2.4"/>
</g>
</svg>
